<mxfile host="Electron" modified="2025-07-15T22:11:29.406Z" agent="Mozilla/5.0 (Windows NT 10.0; Win64; x64) AppleWebKit/537.36 (KHTML, like Gecko) draw.io/22.1.2 Chrome/114.0.5735.289 Electron/25.9.4 Safari/537.36" etag="_ItKHQgRNNfs6MWSZja6" version="22.1.2" type="device">
  <diagram name="sketch" id="NKct0yvRwDZPGS5-LY1j">
    <mxGraphModel dx="1098" dy="801" grid="1" gridSize="10" guides="1" tooltips="1" connect="1" arrows="1" fold="1" page="1" pageScale="1" pageWidth="1654" pageHeight="1169" math="0" shadow="0">
      <root>
        <mxCell id="0" />
        <mxCell id="1" parent="0" />
        <mxCell id="gYTZMiJ3hf2rMKiT2wGT-1" value="raw" style="rounded=1;absoluteArcSize=1;arcSize=14;whiteSpace=wrap;strokeWidth=2;strokeColor=none;fontFamily=Asap;fontSource=https%3A%2F%2Ffonts.googleapis.com%2Fcss%3Ffamily%3DAsap;fillColor=#000000;fontSize=13;fontColor=#FFFFFF;rotation=0;" vertex="1" parent="1">
          <mxGeometry x="166" y="272" width="110" height="30" as="geometry" />
        </mxCell>
        <mxCell id="gYTZMiJ3hf2rMKiT2wGT-29" style="edgeStyle=orthogonalEdgeStyle;rounded=0;orthogonalLoop=1;jettySize=auto;html=1;strokeColor=#000000;opacity=70;" edge="1" parent="1" source="gYTZMiJ3hf2rMKiT2wGT-2" target="gYTZMiJ3hf2rMKiT2wGT-3">
          <mxGeometry relative="1" as="geometry" />
        </mxCell>
        <mxCell id="gYTZMiJ3hf2rMKiT2wGT-2" value="structures" style="rounded=1;absoluteArcSize=1;arcSize=14;whiteSpace=wrap;strokeWidth=2;strokeColor=none;fontFamily=Asap;fontSource=https%3A%2F%2Ffonts.googleapis.com%2Fcss%3Ffamily%3DAsap;fillColor=#000000;fontSize=13;fontColor=#FFFFFF;rotation=0;" vertex="1" parent="1">
          <mxGeometry x="349" y="272" width="110" height="30" as="geometry" />
        </mxCell>
        <mxCell id="gYTZMiJ3hf2rMKiT2wGT-33" style="edgeStyle=orthogonalEdgeStyle;rounded=0;orthogonalLoop=1;jettySize=auto;html=1;entryX=0.5;entryY=0;entryDx=0;entryDy=0;strokeColor=#000000;opacity=70;" edge="1" parent="1" source="gYTZMiJ3hf2rMKiT2wGT-3" target="gYTZMiJ3hf2rMKiT2wGT-18">
          <mxGeometry relative="1" as="geometry" />
        </mxCell>
        <mxCell id="gYTZMiJ3hf2rMKiT2wGT-3" value="text" style="rounded=1;absoluteArcSize=1;arcSize=14;whiteSpace=wrap;strokeWidth=2;strokeColor=none;fontFamily=Asap;fontSource=https%3A%2F%2Ffonts.googleapis.com%2Fcss%3Ffamily%3DAsap;fontSize=13;fillColor=#000000;fontColor=#FFFFFF;rotation=0;" vertex="1" parent="1">
          <mxGeometry x="349" y="395" width="110" height="30" as="geometry" />
        </mxCell>
        <mxCell id="gYTZMiJ3hf2rMKiT2wGT-51" style="edgeStyle=orthogonalEdgeStyle;rounded=0;orthogonalLoop=1;jettySize=auto;html=1;entryX=0.5;entryY=0;entryDx=0;entryDy=0;endArrow=none;endFill=0;" edge="1" parent="1" source="gYTZMiJ3hf2rMKiT2wGT-4" target="gYTZMiJ3hf2rMKiT2wGT-48">
          <mxGeometry relative="1" as="geometry" />
        </mxCell>
        <mxCell id="gYTZMiJ3hf2rMKiT2wGT-4" value="restructuring" style="rounded=1;absoluteArcSize=1;arcSize=14;whiteSpace=wrap;strokeWidth=2;strokeColor=none;fontFamily=Asap;fontSource=https%3A%2F%2Ffonts.googleapis.com%2Fcss%3Ffamily%3DAsap;fillColor=#000000;fontSize=13;fontColor=#FFFFFF;" vertex="1" parent="1">
          <mxGeometry x="533" y="346" width="112" height="34" as="geometry" />
        </mxCell>
        <mxCell id="gYTZMiJ3hf2rMKiT2wGT-7" value="" style="curved=1;startArrow=none;;exitX=1;exitY=0.5;rounded=0;strokeColor=#000000;opacity=70;fontFamily=Asap;fontSource=https%3A%2F%2Ffonts.googleapis.com%2Fcss%3Ffamily%3DAsap;exitDx=0;exitDy=0;entryX=0;entryY=0.5;entryDx=0;entryDy=0;" edge="1" parent="1" source="gYTZMiJ3hf2rMKiT2wGT-1" target="gYTZMiJ3hf2rMKiT2wGT-2">
          <mxGeometry relative="1" as="geometry">
            <Array as="points" />
            <mxPoint x="314" y="289" as="targetPoint" />
          </mxGeometry>
        </mxCell>
        <mxCell id="gYTZMiJ3hf2rMKiT2wGT-55" style="edgeStyle=orthogonalEdgeStyle;rounded=0;orthogonalLoop=1;jettySize=auto;html=1;" edge="1" parent="1" source="gYTZMiJ3hf2rMKiT2wGT-18">
          <mxGeometry relative="1" as="geometry">
            <mxPoint x="520" y="533" as="targetPoint" />
          </mxGeometry>
        </mxCell>
        <mxCell id="gYTZMiJ3hf2rMKiT2wGT-18" value="numerics" style="rounded=1;absoluteArcSize=1;arcSize=14;whiteSpace=wrap;strokeWidth=2;strokeColor=none;fontFamily=Asap;fontSource=https%3A%2F%2Ffonts.googleapis.com%2Fcss%3Ffamily%3DAsap;fontSize=13;fillColor=#000000;fontColor=#FFFFFF;rotation=0;" vertex="1" parent="1">
          <mxGeometry x="349" y="518" width="110" height="30" as="geometry" />
        </mxCell>
        <mxCell id="gYTZMiJ3hf2rMKiT2wGT-19" value="" style="html=1;points=[];perimeter=orthogonalPerimeter;fillColor=strokeColor;rotation=0;" vertex="1" parent="1">
          <mxGeometry x="704.1" y="402" width="5" height="265" as="geometry" />
        </mxCell>
        <mxCell id="gYTZMiJ3hf2rMKiT2wGT-21" value="best model per architecture" style="text;html=1;strokeColor=none;fillColor=none;align=center;verticalAlign=middle;whiteSpace=wrap;rounded=0;fontFamily=Asap;fontSource=https%3A%2F%2Ffonts.googleapis.com%2Fcss%3Ffamily%3DAsap;fontSize=11;fontStyle=1" vertex="1" parent="1">
          <mxGeometry x="359" y="456" width="90" height="30" as="geometry" />
        </mxCell>
        <mxCell id="gYTZMiJ3hf2rMKiT2wGT-25" value="best model" style="sketch=0;outlineConnect=0;fontColor=#232F3E;gradientColor=none;fillColor=#000000;strokeColor=none;dashed=0;verticalLabelPosition=bottom;verticalAlign=top;align=center;html=1;fontSize=12;fontStyle=0;aspect=fixed;pointerEvents=1;shape=mxgraph.aws4.sagemaker_model;opacity=80;" vertex="1" parent="1">
          <mxGeometry x="550" y="495" width="78" height="78" as="geometry" />
        </mxCell>
        <mxCell id="gYTZMiJ3hf2rMKiT2wGT-46" style="edgeStyle=orthogonalEdgeStyle;rounded=1;orthogonalLoop=1;jettySize=auto;html=1;entryX=0.5;entryY=0;entryDx=0;entryDy=0;" edge="1" parent="1" source="gYTZMiJ3hf2rMKiT2wGT-27" target="gYTZMiJ3hf2rMKiT2wGT-4">
          <mxGeometry relative="1" as="geometry" />
        </mxCell>
        <mxCell id="gYTZMiJ3hf2rMKiT2wGT-27" value="" style="sketch=0;outlineConnect=0;fontColor=#232F3E;gradientColor=none;strokeColor=#232F3E;fillColor=#ffffff;dashed=0;verticalLabelPosition=bottom;verticalAlign=top;align=center;html=1;fontSize=12;fontStyle=0;aspect=fixed;shape=mxgraph.aws4.resourceIcon;resIcon=mxgraph.aws4.bucket;rotation=0;" vertex="1" parent="1">
          <mxGeometry x="773.1" y="285" width="35" height="35" as="geometry" />
        </mxCell>
        <mxCell id="gYTZMiJ3hf2rMKiT2wGT-36" value="detecting" style="shadow=0;dashed=0;html=1;strokeColor=none;fillColor=#000000;labelPosition=center;verticalLabelPosition=bottom;verticalAlign=top;align=center;outlineConnect=0;shape=mxgraph.veeam.interface;" vertex="1" parent="1">
          <mxGeometry x="768.2" y="549" width="44.8" height="44.8" as="geometry" />
        </mxCell>
        <mxCell id="gYTZMiJ3hf2rMKiT2wGT-40" style="edgeStyle=orthogonalEdgeStyle;rounded=0;orthogonalLoop=1;jettySize=auto;html=1;" edge="1" parent="1" source="gYTZMiJ3hf2rMKiT2wGT-37" target="gYTZMiJ3hf2rMKiT2wGT-27">
          <mxGeometry relative="1" as="geometry" />
        </mxCell>
        <mxCell id="gYTZMiJ3hf2rMKiT2wGT-37" value="bare" style="shadow=0;dashed=0;html=1;strokeColor=none;fillColor=#000000;labelPosition=center;verticalLabelPosition=bottom;verticalAlign=top;align=center;outlineConnect=0;shape=mxgraph.veeam.interface;" vertex="1" parent="1">
          <mxGeometry x="768.2" y="432.2" width="44.8" height="44.8" as="geometry" />
        </mxCell>
        <mxCell id="gYTZMiJ3hf2rMKiT2wGT-38" value="the private &lt;font color=&quot;#ff8000&quot;&gt;detecting&lt;/font&gt; repository hosts the code of the &lt;a href=&quot;https://d22j2jhm9iagpk.cloudfront.net/src/c-dispatches-app.html&quot;&gt;simple open interface&lt;/a&gt;" style="text;html=1;strokeColor=none;fillColor=none;align=center;verticalAlign=middle;whiteSpace=wrap;rounded=0;fontFamily=Caveat Brush;fontSource=https%3A%2F%2Ffonts.googleapis.com%2Fcss%3Ffamily%3DCaveat%2BBrush;rotation=0;" vertex="1" parent="1">
          <mxGeometry x="736" y="637.85" width="127" height="40" as="geometry" />
        </mxCell>
        <mxCell id="gYTZMiJ3hf2rMKiT2wGT-39" value="the&amp;nbsp;&lt;font color=&quot;#ff8000&quot;&gt;restructuring&lt;/font&gt; repository will transform text collected via the bare interface into a format for model retraining" style="text;html=1;strokeColor=none;fillColor=none;align=center;verticalAlign=middle;whiteSpace=wrap;rounded=0;fontFamily=Caveat Brush;fontSource=https%3A%2F%2Ffonts.googleapis.com%2Fcss%3Ffamily%3DCaveat%2BBrush;rotation=-30;" vertex="1" parent="1">
          <mxGeometry x="571.5994660175719" y="211.00050807568874" width="178.4" height="40" as="geometry" />
        </mxCell>
        <mxCell id="gYTZMiJ3hf2rMKiT2wGT-43" value="the&amp;nbsp;&lt;font color=&quot;#ff8000&quot;&gt;raw&lt;/font&gt; repository package retrieves the raw data" style="text;html=1;strokeColor=none;fillColor=none;align=center;verticalAlign=middle;whiteSpace=wrap;rounded=0;fontFamily=Caveat Brush;fontSource=https%3A%2F%2Ffonts.googleapis.com%2Fcss%3Ffamily%3DCaveat%2BBrush;rotation=0;" vertex="1" parent="1">
          <mxGeometry x="144" y="230" width="140" height="40" as="geometry" />
        </mxCell>
        <mxCell id="gYTZMiJ3hf2rMKiT2wGT-44" value="the&amp;nbsp;&lt;font color=&quot;#ff8000&quot;&gt;structures&lt;/font&gt; repository package prepares the raw data for modelling" style="text;html=1;strokeColor=none;fillColor=none;align=center;verticalAlign=middle;whiteSpace=wrap;rounded=0;fontFamily=Caveat Brush;fontSource=https%3A%2F%2Ffonts.googleapis.com%2Fcss%3Ffamily%3DCaveat%2BBrush;rotation=0;" vertex="1" parent="1">
          <mxGeometry x="339.15" y="226" width="129.7" height="40" as="geometry" />
        </mxCell>
        <mxCell id="gYTZMiJ3hf2rMKiT2wGT-45" value="the&amp;nbsp;&lt;font color=&quot;#ff8000&quot;&gt;text&lt;/font&gt; repository package builds models per pre-trained architecture" style="text;html=1;strokeColor=none;fillColor=none;align=center;verticalAlign=middle;whiteSpace=wrap;rounded=0;fontFamily=Caveat Brush;fontSource=https%3A%2F%2Ffonts.googleapis.com%2Fcss%3Ffamily%3DCaveat%2BBrush;rotation=0;" vertex="1" parent="1">
          <mxGeometry x="217.1" y="387" width="123.9" height="40" as="geometry" />
        </mxCell>
        <mxCell id="gYTZMiJ3hf2rMKiT2wGT-52" style="edgeStyle=orthogonalEdgeStyle;rounded=0;orthogonalLoop=1;jettySize=auto;html=1;" edge="1" parent="1" source="gYTZMiJ3hf2rMKiT2wGT-48" target="gYTZMiJ3hf2rMKiT2wGT-25">
          <mxGeometry relative="1" as="geometry" />
        </mxCell>
        <mxCell id="gYTZMiJ3hf2rMKiT2wGT-48" value="RE-TRAIN BEST MODEL" style="text;html=1;strokeColor=none;fillColor=none;align=center;verticalAlign=middle;whiteSpace=wrap;rounded=0;fontStyle=1;fontFamily=Asap;fontSource=https%3A%2F%2Ffonts.googleapis.com%2Fcss%3Ffamily%3DAsap;" vertex="1" parent="1">
          <mxGeometry x="549" y="422" width="80" height="30" as="geometry" />
        </mxCell>
        <mxCell id="gYTZMiJ3hf2rMKiT2wGT-54" style="edgeStyle=orthogonalEdgeStyle;rounded=0;orthogonalLoop=1;jettySize=auto;html=1;entryX=-0.02;entryY=0.498;entryDx=0;entryDy=0;entryPerimeter=0;" edge="1" parent="1" source="gYTZMiJ3hf2rMKiT2wGT-25" target="gYTZMiJ3hf2rMKiT2wGT-19">
          <mxGeometry relative="1" as="geometry" />
        </mxCell>
      </root>
    </mxGraphModel>
  </diagram>
</mxfile>
